<svg width="100%" height="100%" viewBox="0 0 500 500" version="1.1" xmlns="http://www.w3.org/2000/svg" xmlns:xlink="http://www.w3.org/1999/xlink"  style="fill-rule:evenodd;clip-rule:evenodd;stroke-linejoin:round;stroke-miterlimit:2;">
    <g transform="matrix(1,0,0,1,-6,-6)">
        <g transform="matrix(1.00259,0,0,1.12153,-2.81116,-48.5322)">
            <rect x="8.397" y="48.27" width="498.66" height="446.73" style="fill:white;"/>
        </g>
        <g transform="matrix(1,0,0,1,7.63638,-24.1788)">
            <path d="M47.933,404.576C39.988,412.522 35.612,423.086 35.612,434.322C35.612,445.559 39.988,456.123 47.933,464.065C55.878,472.012 66.443,476.388 77.68,476.388C88.916,476.388 99.48,472.012 107.426,464.066C113.043,458.447 116.882,451.506 118.646,443.849L147.004,415.492C147.005,415.491 147.006,415.489 147.008,415.488C147.01,415.487 147.011,415.485 147.012,415.483L164.543,397.952L186.53,419.939C188.218,421.627 190.508,422.575 192.894,422.575C195.282,422.575 197.571,421.627 199.258,419.938L220.512,398.68C224.027,395.165 224.027,389.467 220.512,385.952L200.85,366.29L361.98,210.288C364.096,208.759 366.87,204.113 367.098,201.511L406.133,115.623C406.367,112.971 405.414,110.352 403.532,108.469C401.649,106.587 399.029,105.637 396.378,105.868L309.384,137.002C306.782,137.231 299.639,141.358 298.11,143.474L145.709,311.149L126.046,291.485C124.358,289.797 122.068,288.849 119.682,288.849C117.296,288.849 115.006,289.797 113.318,291.485L92.062,312.741C88.547,316.256 88.547,321.955 92.062,325.47L114.047,347.455L68.147,393.354C60.49,395.121 53.551,398.96 47.933,404.576ZM77.68,458.389C71.251,458.389 65.207,455.885 60.66,451.337C56.114,446.793 53.611,440.751 53.611,434.322C53.611,427.894 56.115,421.85 60.659,417.305C64.294,413.672 68.889,411.336 73.951,410.55L73.954,410.55C75.183,410.359 76.437,410.262 77.683,410.262C84.112,410.262 90.155,412.764 94.696,417.302C95.372,417.979 96.003,418.692 96.587,419.436C100.677,424.648 102.481,431.413 101.449,438.045C100.664,443.108 98.329,447.706 94.697,451.339C90.151,455.886 84.108,458.389 77.68,458.389ZM312.158,147.402L392.441,119.35L358.344,198.815L187.958,353.397L179.645,345.083L341.624,183.105C345.139,179.59 345.139,173.891 341.624,170.376C338.109,166.863 332.412,166.861 328.895,170.376L166.916,332.354L158.602,324.04L312.158,147.402ZM119.682,310.577L201.421,392.318L192.894,400.846L170.945,378.897C170.932,378.884 170.923,378.871 170.91,378.858L133.14,341.09C133.136,341.086 133.131,341.082 133.127,341.078L111.153,319.104L119.682,310.577ZM151.815,385.224L140.643,396.396L115.604,371.354L126.774,360.184L151.815,385.224ZM102.877,384.081L127.916,409.123L117.162,419.877C117.104,419.719 117.036,419.565 116.976,419.407C116.849,419.072 116.715,418.739 116.58,418.407C116.418,418.007 116.249,417.61 116.074,417.216C115.928,416.886 115.777,416.56 115.623,416.234C115.437,415.843 115.244,415.457 115.047,415.072C114.883,414.752 114.718,414.434 114.546,414.119C114.336,413.735 114.117,413.356 113.896,412.978C113.716,412.673 113.539,412.367 113.351,412.066C113.114,411.685 112.866,411.311 112.617,410.937C112.426,410.65 112.238,410.362 112.04,410.08C111.769,409.693 111.483,409.317 111.198,408.939C111.004,408.681 110.815,408.42 110.614,408.167C110.286,407.752 109.94,407.35 109.595,406.946C109.42,406.742 109.254,406.532 109.074,406.331C108.542,405.732 107.992,405.146 107.423,404.576C106.899,404.052 106.361,403.545 105.815,403.053C105.631,402.888 105.442,402.733 105.256,402.571C104.888,402.251 104.519,401.931 104.142,401.625C103.913,401.44 103.68,401.264 103.449,401.083C103.103,400.815 102.759,400.548 102.406,400.291C102.156,400.108 101.901,399.933 101.647,399.757C101.303,399.517 100.958,399.28 100.607,399.052C100.342,398.879 100.077,398.712 99.809,398.546C99.459,398.329 99.107,398.116 98.752,397.911C98.477,397.751 98.202,397.595 97.924,397.441C97.565,397.243 97.201,397.052 96.836,396.866C96.557,396.723 96.279,396.58 95.998,396.444C95.619,396.26 95.236,396.087 94.852,395.915C94.578,395.793 94.305,395.667 94.028,395.55C93.616,395.376 93.198,395.216 92.78,395.056C92.57,394.975 92.364,394.884 92.153,394.807L102.877,384.081Z" style="fill-rule:nonzero;"/>
        </g>
        <g transform="matrix(0.167772,-0.985826,0.985826,0.167772,-16.9189,427.744)">
            <path d="M47.933,404.576C39.988,412.522 35.612,423.086 35.612,434.322C35.612,445.559 39.988,456.123 47.933,464.065C55.878,472.012 66.443,476.388 77.68,476.388C88.916,476.388 99.48,472.012 107.426,464.066C113.043,458.447 116.882,451.506 118.646,443.849L147.004,415.492C147.005,415.491 147.006,415.489 147.008,415.488C147.01,415.487 147.011,415.485 147.012,415.483L164.543,397.952L186.53,419.939C188.218,421.627 190.508,422.575 192.894,422.575C195.282,422.575 197.571,421.627 199.258,419.938L220.512,398.68C224.027,395.165 224.027,389.467 220.512,385.952L200.85,366.29L361.98,210.288C364.096,208.759 366.87,204.113 367.098,201.511L406.133,115.623C406.367,112.971 405.414,110.352 403.532,108.469C401.649,106.587 399.029,105.637 396.378,105.868L309.384,137.002C306.782,137.231 299.639,141.358 298.11,143.474L145.709,311.149L126.046,291.485C124.358,289.797 122.068,288.849 119.682,288.849C117.296,288.849 115.006,289.797 113.318,291.485L92.062,312.741C88.547,316.256 88.547,321.955 92.062,325.47L114.047,347.455L68.147,393.354C60.49,395.121 53.551,398.96 47.933,404.576ZM77.68,458.389C71.251,458.389 65.207,455.885 60.66,451.337C56.114,446.793 53.611,440.751 53.611,434.322C53.611,427.894 56.115,421.85 60.659,417.305C64.294,413.672 68.889,411.336 73.951,410.55L73.954,410.55C75.183,410.359 76.437,410.262 77.683,410.262C84.112,410.262 90.155,412.764 94.696,417.302C95.372,417.979 96.003,418.692 96.587,419.436C100.677,424.648 102.481,431.413 101.449,438.045C100.664,443.108 98.329,447.706 94.697,451.339C90.151,455.886 84.108,458.389 77.68,458.389ZM312.158,147.402L392.441,119.35L358.344,198.815L187.958,353.397L179.645,345.083L341.624,183.105C345.139,179.59 345.139,173.891 341.624,170.376C338.109,166.863 332.412,166.861 328.895,170.376L166.916,332.354L158.602,324.04L312.158,147.402ZM119.682,310.577L201.421,392.318L192.894,400.846L170.945,378.897C170.932,378.884 170.923,378.871 170.91,378.858L133.14,341.09C133.136,341.086 133.131,341.082 133.127,341.078L111.153,319.104L119.682,310.577ZM151.815,385.224L140.643,396.396L115.604,371.354L126.774,360.184L151.815,385.224ZM102.877,384.081L127.916,409.123L117.162,419.877C117.104,419.719 117.036,419.565 116.976,419.407C116.849,419.072 116.715,418.739 116.58,418.407C116.418,418.007 116.249,417.61 116.074,417.216C115.928,416.886 115.777,416.56 115.623,416.234C115.437,415.843 115.244,415.457 115.047,415.072C114.883,414.752 114.718,414.434 114.546,414.119C114.336,413.735 114.117,413.356 113.896,412.978C113.716,412.673 113.539,412.367 113.351,412.066C113.114,411.685 112.866,411.311 112.617,410.937C112.426,410.65 112.238,410.362 112.04,410.08C111.769,409.693 111.483,409.317 111.198,408.939C111.004,408.681 110.815,408.42 110.614,408.167C110.286,407.752 109.94,407.35 109.595,406.946C109.42,406.742 109.254,406.532 109.074,406.331C108.542,405.732 107.992,405.146 107.423,404.576C106.899,404.052 106.361,403.545 105.815,403.053C105.631,402.888 105.442,402.733 105.256,402.571C104.888,402.251 104.519,401.931 104.142,401.625C103.913,401.44 103.68,401.264 103.449,401.083C103.103,400.815 102.759,400.548 102.406,400.291C102.156,400.108 101.901,399.933 101.647,399.757C101.303,399.517 100.958,399.28 100.607,399.052C100.342,398.879 100.077,398.712 99.809,398.546C99.459,398.329 99.107,398.116 98.752,397.911C98.477,397.751 98.202,397.595 97.924,397.441C97.565,397.243 97.201,397.052 96.836,396.866C96.557,396.723 96.279,396.58 95.998,396.444C95.619,396.26 95.236,396.087 94.852,395.915C94.578,395.793 94.305,395.667 94.028,395.55C93.616,395.376 93.198,395.216 92.78,395.056C92.57,394.975 92.364,394.884 92.153,394.807L102.877,384.081Z" style="fill-rule:nonzero;"/>
        </g>
        <g transform="matrix(1,0,0,1,7.63638,-24.1788)">
            <path d="M211.553,215.782L307.37,332.599L319.479,326.703L232.265,203.809L211.553,215.782Z" style="fill:white;"/>
            <path d="M211.553,215.782L307.37,332.599L319.479,326.703L232.265,203.809L211.553,215.782ZM213.073,216.058L307.642,331.354L317.981,326.32L231.977,205.131L213.073,216.058Z" style="fill:white;"/>
        </g>
        <g transform="matrix(1,0,0,1,7.63638,-24.1788)">
            <path d="M257.577,172.799L336.824,296.913L325.537,304.17L244.572,189.979L257.577,172.799Z" style="fill:white;"/>
            <path d="M257.577,172.799L336.824,296.913L325.537,304.17L244.572,189.979L257.577,172.799ZM245.811,189.999L325.8,302.812L335.445,296.611L257.507,174.548L245.811,189.999Z" style="fill:white;"/>
        </g>
    </g>
</svg>
